<svg width="149px" height="149px" viewBox="-368.64 -368.64 1761.28 1761.28" class="icon" version="1.1" xmlns="http://www.w3.org/2000/svg" fill="#000000"><g id="SVGRepo_bgCarrier" stroke-width="0"><rect x="-368.64" y="-368.64" width="1761.28" height="1761.28" rx="880.64" fill="#613583" strokewidth="0"></rect></g><g id="SVGRepo_tracerCarrier" stroke-linecap="round" stroke-linejoin="round"></g><g id="SVGRepo_iconCarrier"><path d="M719.8 651.8m-10 0a10 10 0 1 0 20 0 10 10 0 1 0-20 0Z" fill="#E73B37"></path><path d="M512.1 64H172v896h680V385.6L512.1 64z m278.8 324.3h-280v-265l280 265zM808 916H216V108h278.6l0.2 0.2v296.2h312.9l0.2 0.2V916z" fill="#ffffff"></path><path d="M280.5 530h325.9v16H280.5z" fill="#ffffff"></path><path d="M639.5 530h90.2v16h-90.2z" fill="#E73B37"></path><path d="M403.5 641.8h277v16h-277z" fill="#ffffff"></path><path d="M280.6 641.8h91.2v16h-91.2z" fill="#E73B37"></path><path d="M279.9 753.7h326.5v16H279.9z" fill="#ffffff"></path><path d="M655.8 753.7h73.9v16h-73.9z" fill="#E73B37"></path></g></svg>
